[Header]
FileType HTR
DataType HTRS
FileVersion 1
NumSegments 64
NumFrames 4
DataFrameRate 24
EulerRotationOrder ZYX
CalibrationUnits mm
RotationUnits Degrees
GlobalAxisofGravity Y
BoneLengthAxis Y
ScaleFactor 1.0
[SegmentNames&Hierarchy]
Hips	GLOBAL
Spine	Hips
Spine1	Spine
Spine2	Spine1
Neck	Spine2
Head	Neck
LeftEye	Head
RightEye	Head
LeftShoulder	Spine2
LeftArm	LeftShoulder
LeftForeArm	LeftArm
LeftHand	LeftForeArm
LeftHandThumb1	LeftHand
LeftHandThumb2	LeftHandThumb1
LeftHandThumb3	LeftHandThumb2
LeftHandThumb4	LeftHandThumb3
LeftHandIndex1	LeftHand
LeftHandIndex2	LeftHandIndex1
LeftHandIndex3	LeftHandIndex2
LeftHandIndex4	LeftHandIndex3
LeftHandMiddle1	LeftHand
LeftHandMiddle2	LeftHandMiddle1
LeftHandMiddle3	LeftHandMiddle2
LeftHandMiddle4	LeftHandMiddle3
LeftHandRing1	LeftHand
LeftHandRing2	LeftHandRing1
LeftHandRing3	LeftHandRing2
LeftHandRing4	LeftHandRing3
LeftHandPinky1	LeftHand
LeftHandPinky2	LeftHandPinky1
LeftHandPinky3	LeftHandPinky2
LeftHandPinky4	LeftHandPinky3
RightShoulder	Spine2
RightArm	RightShoulder
RightForeArm	RightArm
RightHand	RightForeArm
RightHandPinky1	RightHand
RightHandPinky2	RightHandPinky1
RightHandPinky3	RightHandPinky2
RightHandPinky4	RightHandPinky3
RightHandRing1	RightHand
RightHandRing2	RightHandRing1
RightHandRing3	RightHandRing2
RightHandRing4	RightHandRing3
RightHandMiddle1	RightHand
RightHandMiddle2	RightHandMiddle1
RightHandMiddle3	RightHandMiddle2
RightHandMiddle4	RightHandMiddle3
RightHandIndex1	RightHand
RightHandIndex2	RightHandIndex1
RightHandIndex3	RightHandIndex2
RightHandIndex4	RightHandIndex3
RightHandThumb1	RightHand
RightHandThumb2	RightHandThumb1
RightHandThumb3	RightHandThumb2
RightHandThumb4	RightHandThumb3
LeftUpLeg	Hips
LeftLeg	LeftUpLeg
LeftFoot	LeftLeg
LeftToeBase	LeftFoot
RightUpLeg	Hips
RightLeg	RightUpLeg
RightFoot	RightLeg
RightToeBase	RightFoot
[BasePosition]
Hips	0	0	0	0	0	0	1
Spine	0	0	0	0	0	0	1
Spine1	0	0	0	0	0	0	1
Spine2	0	0	0	0	0	0	1
Neck	0	0	0	0	0	0	1
Head	0	0	0	0	0	0	1
LeftEye	0	0	0	0	0	0	1
RightEye	0	0	0	0	0	0	1
LeftShoulder	0	0	0	0	0	0	1
LeftArm	0	0	0	0	0	0	1
LeftForeArm	0	0	0	0	0	0	1
LeftHand	0	0	0	0	0	0	1
LeftHandThumb1	0	0	0	0	0	0	1
LeftHandThumb2	0	0	0	0	0	0	1
LeftHandThumb3	0	0	0	0	0	0	1
LeftHandThumb4	0	0	0	0	0	0	1
LeftHandIndex1	0	0	0	0	0	0	1
LeftHandIndex2	0	0	0	0	0	0	1
LeftHandIndex3	0	0	0	0	0	0	1
LeftHandIndex4	0	0	0	0	0	0	1
LeftHandMiddle1	0	0	0	0	0	0	1
LeftHandMiddle2	0	0	0	0	0	0	1
LeftHandMiddle3	0	0	0	0	0	0	1
LeftHandMiddle4	0	0	0	0	0	0	1
LeftHandRing1	0	0	0	0	0	0	1
LeftHandRing2	0	0	0	0	0	0	1
LeftHandRing3	0	0	0	0	0	0	1
LeftHandRing4	0	0	0	0	0	0	1
LeftHandPinky1	0	0	0	0	0	0	1
LeftHandPinky2	0	0	0	0	0	0	1
LeftHandPinky3	0	0	0	0	0	0	1
LeftHandPinky4	0	0	0	0	0	0	1
RightShoulder	0	0	0	0	0	0	1
RightArm	0	0	0	0	0	0	1
RightForeArm	0	0	0	0	0	0	1
RightHand	0	0	0	0	0	0	1
RightHandPinky1	0	0	0	0	0	0	1
RightHandPinky2	0	0	0	0	0	0	1
RightHandPinky3	0	0	0	0	0	0	1
RightHandPinky4	0	0	0	0	0	0	1
RightHandRing1	0	0	0	0	0	0	1
RightHandRing2	0	0	0	0	0	0	1
RightHandRing3	0	0	0	0	0	0	1
RightHandRing4	0	0	0	0	0	0	1
RightHandMiddle1	0	0	0	0	0	0	1
RightHandMiddle2	0	0	0	0	0	0	1
RightHandMiddle3	0	0	0	0	0	0	1
RightHandMiddle4	0	0	0	0	0	0	1
RightHandIndex1	0	0	0	0	0	0	1
RightHandIndex2	0	0	0	0	0	0	1
RightHandIndex3	0	0	0	0	0	0	1
RightHandIndex4	0	0	0	0	0	0	1
RightHandThumb1	0	0	0	0	0	0	1
RightHandThumb2	0	0	0	0	0	0	1
RightHandThumb3	0	0	0	0	0	0	1
RightHandThumb4	0	0	0	0	0	0	1
LeftUpLeg	0	0	0	0	0	0	1
LeftLeg	0	0	0	0	0	0	1
LeftFoot	0	0	0	0	0	0	1
LeftToeBase	0	0	0	0	0	0	1
RightUpLeg	0	0	0	0	0	0	1
RightLeg	0	0	0	0	0	0	1
RightFoot	0	0	0	0	0	0	1
RightToeBase	0	0	0	0	0	0	1
[Hips]
7	-1.620672703	953.6208496	1.151324511	-4.450257778	-3.093135595	1.504770398	1.0
8	-2.724905014	968.864624	-0.05013607442	-3.349663019	-3.048752308	1.926858187	1.0
9	-4.15707159	969.0670776	-2.082887888	-3.001106262	-2.804032326	2.111909389	1.0
10	-6.34922123	952.4040527	-5.425565243	-3.832794189	-2.236510515	2.20142889	1.0
[Spine]
7	9.234152094e-05	101.8158798	1.31520927	4.881458282	1.761265278	1.052876711	1.0
8	9.234152094e-05	101.8158798	1.31520927	3.977703094	1.723126888	1.136622429	1.0
9	9.234152094e-05	101.8158798	1.31520927	3.960101128	1.567959309	1.526541233	1.0
10	9.234152094e-05	101.8158798	1.31520927	5.142827988	1.335258961	1.897646189	1.0
[Spine1]
7	2.519402869e-06	100.8345108	-10.00804329	-4.343908787	0.3223205805	2.397747278	1.0
8	2.519402869e-06	100.8345108	-10.00804329	-4.505298615	0.2804883718	2.432548046	1.0
9	2.519402869e-06	100.8345108	-10.00804329	-4.544804096	0.2156132907	2.473128319	1.0
10	2.519402869e-06	100.8345108	-10.00804329	-4.399627686	0.1350155324	2.477149963	1.0
[Spine2]
7	3.4574864e-06	91.00010681	-13.73417091	-4.368355274	-0.3441669047	-0.5688775778	1.0
8	3.4574864e-06	91.00010681	-13.73417091	-4.528716087	-0.3900273442	-0.5344223976	1.0
9	3.4574864e-06	91.00010681	-13.73417091	-4.566190243	-0.4549064934	-0.493693471	1.0
10	3.4574864e-06	91.00010681	-13.73417091	-4.418183804	-0.5267856121	-0.4889114499	1.0
[Neck]
7	6.334285445e-06	166.7166901	-25.16167831	8.852811813	0.08899388462	-0.761657536	1.0
8	6.334285445e-06	166.7166901	-25.16167831	8.79583931	0.0772780031	-0.6942259073	1.0
9	6.334285445e-06	166.7166901	-25.16167831	8.719557762	0.05949763954	-0.639046073	1.0
10	6.334285445e-06	166.7166901	-25.16167831	8.647759438	0.05795532838	-0.6002662778	1.0
[Head]
7	-4.242318937e-06	96.17874908	16.85007477	8.3968153	1.106667995	-3.686667204	1.0
8	-4.242318937e-06	96.17874908	16.85007477	7.803480148	1.622904301	-4.528354645	1.0
9	-4.242318937e-06	96.17874908	16.85007477	7.088796616	2.040165663	-5.34698391	1.0
10	-4.242318937e-06	96.17874908	16.85007477	6.519032001	2.305410385	-5.744384289	1.0
[LeftEye]
7	30.67560577	64.09507751	92.83554077	0	0	0	1.0
8	30.67560577	64.09507751	92.83554077	0	0	0	1.0
9	30.67560577	64.09507751	92.83554077	0	0	0	1.0
10	30.67560577	64.09507751	92.83554077	0	0	0	1.0
[RightEye]
7	-30.67550468	64.09500122	92.83547211	0	0	0	1.0
8	-30.67550468	64.09500122	92.83547211	0	0	0	1.0
9	-30.67550468	64.09500122	92.83547211	0	0	0	1.0
10	-30.67550468	64.09500122	92.83547211	0	0	0	1.0
[LeftShoulder]
7	45.70446396	109.4598465	-26.27988052	11.54365253	-10.92575455	13.33743191	1.0
8	45.70446396	109.4598465	-26.27988052	11.8774395	-10.97400284	14.13238049	1.0
9	45.70446396	109.4598465	-26.27988052	12.00436497	-10.95541573	15.0295229	1.0
10	45.70446396	109.4598465	-26.27988052	11.80403709	-10.99710941	15.52908993	1.0
[LeftArm]
7	105.9236984	-5.245829105	-22.32120132	-54.88105011	-1.287026048	24.65263557	1.0
8	105.9236984	-5.245829105	-22.32120132	-54.16702271	-0.07489988208	24.00646591	1.0
9	105.9236984	-5.245829105	-22.32120132	-53.3907814	0.6703957915	23.37794685	1.0
10	105.9236984	-5.245829105	-22.32120132	-52.66439438	0.6290093064	23.02365112	1.0
[LeftForeArm]
7	278.4151917	-0.0008942864952	0.0003745891154	-24.56121635	-9.443857193	2.574176073	1.0
8	278.4151917	-0.0008942864952	0.0003745891154	-24.57154274	-9.527895927	2.605937481	1.0
9	278.4151917	-0.0008942864952	0.0003745891154	-24.11546326	-9.840993881	2.436676025	1.0
10	278.4151917	-0.0008942864952	0.0003745891154	-23.27098465	-10.25714302	2.017733812	1.0
[LeftHand]
7	283.2883911	-0.0001744071778	0.0003780452244	-74.37689209	3.942043066	14.16844559	1.0
8	283.2883911	-0.0001744071778	0.0003780452244	-74.37036133	3.958300114	14.10053253	1.0
9	283.2883911	-0.0001744071778	0.0003780452244	-74.35968781	3.992800236	13.86067772	1.0
10	283.2883911	-0.0001744071778	0.0003780452244	-74.35188293	4.081739426	13.57773495	1.0
[LeftHandThumb1]
7	24.66140366	-15.7504921	26.82413483	4.590367794	-1.921419621	11.75345516	1.0
8	24.66140366	-15.7504921	26.82413483	4.590387344	-1.921682119	11.75337791	1.0
9	24.66140366	-15.7504921	26.82413483	4.590919495	-1.922595978	11.75356007	1.0
10	24.66140366	-15.7504921	26.82413483	4.593103409	-1.924284458	11.75503063	1.0
[LeftHandThumb2]
7	32.29803848	-18.6469059	18.64681244	19.65688515	24.37127686	16.39091492	1.0
8	32.29803848	-18.6469059	18.64681244	19.65708542	24.37145233	16.39105225	1.0
9	32.29803848	-18.6469059	18.64681244	19.65781784	24.37174034	16.39148903	1.0
10	32.29803848	-18.6469059	18.64681244	19.65921974	24.37145042	16.39210892	1.0
[LeftHandThumb3]
7	26.52565002	-15.31492996	15.31471634	7.895071507	14.18403149	22.37520027	1.0
8	26.52565002	-15.31492996	15.31471634	7.895111084	14.18399143	22.37522125	1.0
9	26.52565002	-15.31492996	15.31471634	7.895374298	14.18368912	22.37537003	1.0
10	26.52565002	-15.31492996	15.31471634	7.896268845	14.18267536	22.37586975	1.0
[LeftHandThumb4]
7	19.54566956	-11.2850008	11.28492165	0	0	0	1.0
8	19.54566956	-11.2850008	11.28492165	0	0	0	1.0
9	19.54566956	-11.2850008	11.28492165	0	0	0	1.0
10	19.54566956	-11.2850008	11.28492165	0	0	0	1.0
[LeftHandIndex1]
7	91.09301758	-5.170834064	22.6007309	-1.058660746	6.968955994	-9.184004784	1.0
8	91.09301758	-5.170834064	22.6007309	-1.058712602	6.9689641	-9.18423748	1.0
9	91.09301758	-5.170834064	22.6007309	-1.058856249	6.968962669	-9.184165001	1.0
10	91.09301758	-5.170834064	22.6007309	-1.059014559	6.968887329	-9.181773186	1.0
[LeftHandIndex2]
7	36.76409531	-6.939138257e-05	0.0002924251603	1.721954346	1.48728919	-12.63472366	1.0
8	36.76409531	-6.939138257e-05	0.0002924251603	1.721922755	1.487435222	-12.63573837	1.0
9	36.76409531	-6.939138257e-05	0.0002924251603	1.721858144	1.487742186	-12.63796043	1.0
10	36.76409531	-6.939138257e-05	0.0002924251603	1.721830845	1.487820268	-12.63873482	1.0
[LeftHandIndex3]
7	28.83062553	0.000385119667	-0.0004276481632	0.7285401225	1.247077107	-11.4758215	1.0
8	28.83062553	0.000385119667	-0.0004276481632	0.7285467386	1.247110128	-11.47607327	1.0
9	28.83062553	0.000385119667	-0.0004276481632	0.7285336852	1.247175097	-11.47657013	1.0
10	28.83062553	0.000385119667	-0.0004276481632	0.7284396291	1.247163773	-11.47652245	1.0
[LeftHandIndex4]
7	23.92720032	0.0003702590766	0.0003355443478	0	0	0	1.0
8	23.92720032	0.0003702590766	0.0003355443478	0	0	0	1.0
9	23.92720032	0.0003702590766	0.0003355443478	0	0	0	1.0
10	23.92720032	0.0003702590766	0.0003355443478	0	0	0	1.0
[LeftHandMiddle1]
7	95.33401489	-0.000339240476	0.0001393702551	0.6169068813	3.508594751	-10.09563637	1.0
8	95.33401489	-0.000339240476	0.0001393702551	0.6168159246	3.508621216	-10.09580135	1.0
9	95.33401489	-0.000339240476	0.0001393702551	0.6166288853	3.508579254	-10.09555626	1.0
10	95.33401489	-0.000339240476	0.0001393702551	0.6165869832	3.5081954	-10.09299088	1.0
[LeftHandMiddle2]
7	36.98236847	1.961359158e-05	0.0001791696704	-1.20319736	0.8927329183	-8.92866993	1.0
8	36.98236847	1.961359158e-05	0.0001791696704	-1.203169823	0.8927078247	-8.929847717	1.0
9	36.98236847	1.961359158e-05	0.0001791696704	-1.202958345	0.8926269412	-8.932289124	1.0
10	36.98236847	1.961359158e-05	0.0001791696704	-1.202269673	0.8924987316	-8.932752609	1.0
[LeftHandMiddle3]
7	29.50921631	-0.0003937608562	0.0001644795993	0.0580955036	1.209685922	-11.4163866	1.0
8	29.50921631	-0.0003937608562	0.0001644795993	0.05808768794	1.20973587	-11.4168129	1.0
9	29.50921631	-0.0003937608562	0.0001644795993	0.05806165934	1.20981133	-11.41745472	1.0
10	29.50921631	-0.0003937608562	0.0001644795993	0.05800785124	1.209696651	-11.4164381	1.0
[LeftHandMiddle4]
7	28.3390255	-0.0003893481917	-9.504223272e-05	0	0	0	1.0
8	28.3390255	-0.0003893481917	-9.504223272e-05	0	0	0	1.0
9	28.3390255	-0.0003893481917	-9.504223272e-05	0	0	0	1.0
10	28.3390255	-0.0003893481917	-9.504223272e-05	0	0	0	1.0
[LeftHandRing1]
7	91.04527283	-0.4393950403	-18.65084648	-2.260954857	3.770598412	-9.774105072	1.0
8	91.04527283	-0.4393950403	-18.65084648	-2.261030674	3.77063036	-9.774539948	1.0
9	91.04527283	-0.4393950403	-18.65084648	-2.261164904	3.77056241	-9.775021553	1.0
10	91.04527283	-0.4393950403	-18.65084648	-2.261049271	3.770028114	-9.773373604	1.0
[LeftHandRing2]
7	31.54026794	-6.55346812e-05	0.000104257444	-5.209534168	0.9304065108	-19.82610893	1.0
8	31.54026794	-6.55346812e-05	0.000104257444	-5.209469795	0.9303538799	-19.82732582	1.0
9	31.54026794	-6.55346812e-05	0.000104257444	-5.209218979	0.9302802682	-19.82991409	1.0
10	31.54026794	-6.55346812e-05	0.000104257444	-5.208685875	0.9304315448	-19.83052254	1.0
[LeftHandRing3]
7	29.37672424	-0.0004545861739	-6.864757597e-05	-3.085587263	1.032757521	-13.1116457	1.0
8	29.37672424	-0.0004545861739	-6.864757597e-05	-3.085624456	1.032739282	-13.11203098	1.0
9	29.37672424	-0.0004545861739	-6.864757597e-05	-3.085576057	1.032723904	-13.1127224	1.0
10	29.37672424	-0.0004545861739	-6.864757597e-05	-3.085039377	1.032788992	-13.11236763	1.0
[LeftHandRing4]
7	26.47452545	-0.0004980441299	7.070515267e-07	0	0	0	1.0
8	26.47452545	-0.0004980441299	7.070515267e-07	0	0	0	1.0
9	26.47452545	-0.0004980441299	7.070515267e-07	0	0	0	1.0
10	26.47452545	-0.0004980441299	7.070515267e-07	0	0	0	1.0
[LeftHandPinky1]
7	80.77777863	-4.886682034	-38.06066895	-7.469027042	3.74224782	-10.3994751	1.0
8	80.77777863	-4.886682034	-38.06066895	-7.468933105	3.742276669	-10.39984894	1.0
9	80.77777863	-4.886682034	-38.06066895	-7.468451023	3.742157221	-10.40000057	1.0
10	80.77777863	-4.886682034	-38.06066895	-7.467142105	3.74144268	-10.3973875	1.0
[LeftHandPinky2]
7	36.00034332	-2.252215199e-05	-0.0002623879409	0.06383357942	0.7225635648	-13.15784359	1.0
8	36.00034332	-2.252215199e-05	-0.0002623879409	0.06370569021	0.7227534056	-13.15909386	1.0
9	36.00034332	-2.252215199e-05	-0.0002623879409	0.06323230267	0.723280251	-13.16166019	1.0
10	36.00034332	-2.252215199e-05	-0.0002623879409	0.06224247441	0.7239363194	-13.16198158	1.0
[LeftHandPinky3]
7	21.14211655	0.0001953828178	-2.864415183e-05	-5.25365448	2.027012587	-17.15776062	1.0
8	21.14211655	0.0001953828178	-2.864415183e-05	-5.253602028	2.026887417	-17.158144	1.0
9	21.14211655	0.0001953828178	-2.864415183e-05	-5.253180504	2.026482582	-17.15903282	1.0
10	21.14211655	0.0001953828178	-2.864415183e-05	-5.251750946	2.025802612	-17.15945244	1.0
[LeftHandPinky4]
7	19.7568264	0.0001240565616	-0.0004430140834	0	0	0	1.0
8	19.7568264	0.0001240565616	-0.0004430140834	0	0	0	1.0
9	19.7568264	0.0001240565616	-0.0004430140834	0	0	0	1.0
10	19.7568264	0.0001240565616	-0.0004430140834	0	0	0	1.0
[RightShoulder]
7	-45.69969559	109.4617615	-26.28017426	11.52931595	9.98049736	-7.872457981	1.0
8	-45.69969559	109.4617615	-26.28017426	11.78735924	9.277143478	-9.640115738	1.0
9	-45.69969559	109.4617615	-26.28017426	11.95787525	8.812831879	-11.33308315	1.0
10	-45.69969559	109.4617615	-26.28017426	12.02694702	8.846170425	-11.90457535	1.0
[RightArm]
7	-105.9284363	-5.247983932	-22.32098579	-55.05986786	9.322031021	-26.36431885	1.0
8	-105.9284363	-5.247983932	-22.32098579	-55.75594711	8.202866554	-26.3172245	1.0
9	-105.9284363	-5.247983932	-22.32098579	-55.95214844	7.370862961	-26.2532444	1.0
10	-105.9284363	-5.247983932	-22.32098579	-55.31902313	7.029270649	-26.25216675	1.0
[RightForeArm]
7	-278.4151917	-0.0003307921579	0.0001167631053	-24.8365345	6.862746239	-12.50162315	1.0
8	-278.4151917	-0.0003307921579	0.0001167631053	-25.57497597	7.743135452	-12.23830891	1.0
9	-278.4151917	-0.0003307921579	0.0001167631053	-26.20368195	8.542923927	-11.62713909	1.0
10	-278.4151917	-0.0003307921579	0.0001167631053	-26.57901955	9.117604256	-10.61889935	1.0
[RightHand]
7	-283.2883911	-1.581417109e-06	0.000558160129	-77.43050385	-3.097333908	-5.341291904	1.0
8	-283.2883911	-1.581417109e-06	0.000558160129	-77.12745667	-2.84193635	-5.805443764	1.0
9	-283.2883911	-1.581417109e-06	0.000558160129	-76.76508331	-2.744398355	-6.3441782	1.0
10	-283.2883911	-1.581417109e-06	0.000558160129	-76.34695435	-2.817428112	-6.649374962	1.0
[RightHandPinky1]
7	-80.76674652	-4.88459301	-38.06010437	-7.414841175	-3.396857023	9.725513458	1.0
8	-80.76674652	-4.88459301	-38.06010437	-7.414767265	-3.396821499	9.72527504	1.0
9	-80.76674652	-4.88459301	-38.06010437	-7.415253639	-3.397122383	9.726466179	1.0
10	-80.76674652	-4.88459301	-38.06010437	-7.415388107	-3.397193432	9.726761818	1.0
[RightHandPinky2]
7	-36.00034332	0.0003967665543	0.0005081442068	0.09548863024	-0.4491392672	13.17245865	1.0
8	-36.00034332	0.0003967665543	0.0005081442068	0.09544475377	-0.4491553605	13.17227173	1.0
9	-36.00034332	0.0003967665543	0.0005081442068	0.09581127018	-0.4489436746	13.17253208	1.0
10	-36.00034332	0.0003967665543	0.0005081442068	0.09591037035	-0.4488807917	13.17254829	1.0
[RightHandPinky3]
7	-21.14211655	0.0001513792522	0.0001479376951	-5.201198578	-1.67406249	17.19540024	1.0
8	-21.14211655	0.0001513792522	0.0001479376951	-5.201101303	-1.674036741	17.19536209	1.0
9	-21.14211655	0.0001513792522	0.0001479376951	-5.201648235	-1.67427063	17.19531822	1.0
10	-21.14211655	0.0001513792522	0.0001479376951	-5.201796055	-1.67433846	17.19528961	1.0
[RightHandPinky4]
7	-19.7568264	-0.000185219571	-9.839841368e-06	0	0	0	1.0
8	-19.7568264	-0.000185219571	-9.839841368e-06	0	0	0	1.0
9	-19.7568264	-0.000185219571	-9.839841368e-06	0	0	0	1.0
10	-19.7568264	-0.000185219571	-9.839841368e-06	0	0	0	1.0
[RightHandRing1]
7	-91.03588104	-0.4391434789	-18.65072441	-2.210627079	-3.436049938	9.100768089	1.0
8	-91.03588104	-0.4391434789	-18.65072441	-2.210610867	-3.43601656	9.100588799	1.0
9	-91.03588104	-0.4391434789	-18.65072441	-2.210683584	-3.436237097	9.101407051	1.0
10	-91.03588104	-0.4391434789	-18.65072441	-2.210700989	-3.436291218	9.101602554	1.0
[RightHandRing2]
7	-31.54026794	0.0002399729856	0.0004885121016	-5.138733864	-0.5248353481	19.84298325	1.0
8	-31.54026794	0.0002399729856	0.0004885121016	-5.138700485	-0.5248646736	19.84280968	1.0
9	-31.54026794	0.0002399729856	0.0004885121016	-5.138876438	-0.524795115	19.84292984	1.0
10	-31.54026794	0.0002399729856	0.0004885121016	-5.13892746	-0.524779737	19.84290504	1.0
[RightHandRing3]
7	-29.37672424	-0.0004160065437	-0.0003966063377	-3.054754972	-0.7614889145	13.13081932	1.0
8	-29.37672424	-0.0004160065437	-0.0003966063377	-3.054708004	-0.7614946365	13.13074017	1.0
9	-29.37672424	-0.0004160065437	-0.0003966063377	-3.054923773	-0.7614557147	13.1309948	1.0
10	-29.37672424	-0.0004160065437	-0.0003966063377	-3.054979801	-0.7614456415	13.13104439	1.0
[RightHandRing4]
7	-26.47452545	0.0002460821415	-2.294923434e-05	0	0	0	1.0
8	-26.47452545	0.0002460821415	-2.294923434e-05	0	0	0	1.0
9	-26.47452545	0.0002460821415	-2.294923434e-05	0	0	0	1.0
10	-26.47452545	0.0002460821415	-2.294923434e-05	0	0	0	1.0
[RightHandMiddle1]
7	-95.32502747	-0.0001631230261	0.0001679184206	0.669457376	-3.167669773	9.416540146	1.0
8	-95.32502747	-0.0001631230261	0.0001679184206	0.6694670916	-3.167646885	9.416338921	1.0
9	-95.32502747	-0.0001631230261	0.0001679184206	0.669460237	-3.167793512	9.4174366	1.0
10	-95.32502747	-0.0001631230261	0.0001679184206	0.6694617271	-3.167829752	9.417715073	1.0
[RightHandMiddle2]
7	-36.98236847	0.000150669599	-0.0002254552383	-1.188895345	-0.7070507407	8.947627068	1.0
8	-36.98236847	0.000150669599	-0.0002254552383	-1.188856125	-0.7070530057	8.94744873	1.0
9	-36.98236847	0.000150669599	-0.0002254552383	-1.189125896	-0.7070974708	8.947624207	1.0
10	-36.98236847	0.000150669599	-0.0002254552383	-1.189198613	-0.7071096897	8.947621346	1.0
[RightHandMiddle3]
7	-29.50921631	-3.113244929e-06	-3.03402544e-06	0.08156758547	-0.975117743	11.43989944	1.0
8	-29.50921631	-3.113244929e-06	-3.03402544e-06	0.08156634122	-0.9751019478	11.43975449	1.0
9	-29.50921631	-3.113244929e-06	-3.03402544e-06	0.08159168065	-0.9751510024	11.4402895	1.0
10	-29.50921631	-3.113244929e-06	-3.03402544e-06	0.08159760386	-0.9751638174	11.44041538	1.0
[RightHandMiddle4]
7	-28.3390255	8.05324089e-05	0.0005378770875	0	0	0	1.0
8	-28.3390255	8.05324089e-05	0.0005378770875	0	0	0	1.0
9	-28.3390255	8.05324089e-05	0.0005378770875	0	0	0	1.0
10	-28.3390255	8.05324089e-05	0.0005378770875	0	0	0	1.0
[RightHandIndex1]
7	-91.08280945	-5.167889595	22.60116386	-1.017278552	-6.645421028	8.575173378	1.0
8	-91.08280945	-5.167889595	22.60116386	-1.017281055	-6.645413399	8.574975967	1.0
9	-91.08280945	-5.167889595	22.60116386	-1.017232895	-6.645413876	8.576025963	1.0
10	-91.08280945	-5.167889595	22.60116386	-1.017222881	-6.645415306	8.576292992	1.0
[RightHandIndex2]
7	-36.76409531	0.0001922715601	0.0003235567128	1.750580668	-1.225939035	12.66444206	1.0
8	-36.76409531	0.0001922715601	0.0003235567128	1.750578165	-1.225921154	12.66431522	1.0
9	-36.76409531	0.0001922715601	0.0003235567128	1.750575662	-1.225933313	12.66432476	1.0
10	-36.76409531	0.0001922715601	0.0003235567128	1.750581026	-1.225931764	12.66428089	1.0
[RightHandIndex3]
7	-28.83062553	-0.0004960121587	0.0004044897505	0.7522765994	-1.009209394	11.49946499	1.0
8	-28.83062553	-0.0004960121587	0.0004044897505	0.7522725463	-1.0092026	11.49942207	1.0
9	-28.83062553	-0.0004960121587	0.0004044897505	0.7523115277	-1.009213567	11.49951839	1.0
10	-28.83062553	-0.0004960121587	0.0004044897505	0.7523223162	-1.009218454	11.49953175	1.0
[RightHandIndex4]
7	-23.92720032	0.0002681470069	0.0002802013478	0	0	0	1.0
8	-23.92720032	0.0002681470069	0.0002802013478	0	0	0	1.0
9	-23.92720032	0.0002681470069	0.0002802013478	0	0	0	1.0
10	-23.92720032	0.0002681470069	0.0002802013478	0	0	0	1.0
[RightHandThumb1]
7	-24.64805984	-15.72714233	26.82626534	3.521515846	3.565512419	-11.0758009	1.0
8	-24.64805984	-15.72714233	26.82626534	3.52166605	3.565578699	-11.07589436	1.0
9	-24.64805984	-15.72714233	26.82626534	3.520791054	3.56499815	-11.0752697	1.0
10	-24.64805984	-15.72714233	26.82626534	3.52055788	3.564834356	-11.07511806	1.0
[RightHandThumb2]
7	-32.29771805	-18.6470871	18.64718437	20.74056625	-26.04791451	-17.63927841	1.0
8	-32.29771805	-18.6470871	18.64718437	20.74064064	-26.04786301	-17.63930511	1.0
9	-32.29771805	-18.6470871	18.64718437	20.74014282	-26.04803658	-17.63910103	1.0
10	-32.29771805	-18.6470871	18.64718437	20.73999596	-26.04807472	-17.63903999	1.0
[RightHandThumb3]
7	-26.52605057	-15.31449318	15.31445599	11.84040737	-19.31072044	-24.80355835	1.0
8	-26.52605057	-15.31449318	15.31445599	11.84045792	-19.31065369	-24.80359268	1.0
9	-26.52605057	-15.31449318	15.31445599	11.8401041	-19.31105804	-24.80335808	1.0
10	-26.52605057	-15.31449318	15.31445599	11.84001637	-19.31116486	-24.80330086	1.0
[RightHandThumb4]
7	-19.54580498	-11.28461742	11.28507042	0	0	0	1.0
8	-19.54580498	-11.28461742	11.28507042	0	0	0	1.0
9	-19.54580498	-11.28461742	11.28507042	0	0	0	1.0
10	-19.54580498	-11.28461742	11.28507042	0	0	0	1.0
[LeftUpLeg]
7	82.07781982	-67.51714325	-15.99555588	-17.237257	32.59598923	3.529836178	1.0
8	82.07781982	-67.51714325	-15.99555588	-16.47830582	30.87864494	3.904060125	1.0
9	82.07781982	-67.51714325	-15.99555588	-16.72278023	28.9268837	5.210335255	1.0
10	82.07781982	-67.51714325	-15.99555588	-17.85466957	26.57345772	6.795918941	1.0
[LeftLeg]
7	-4.110157988e-06	-443.7047119	2.846426487	46.99646378	-13.13093853	-1.112341881	1.0
8	-4.110157988e-06	-443.7047119	2.846426487	43.05389786	-11.16806221	-2.567781448	1.0
9	-4.110157988e-06	-443.7047119	2.846426487	42.98622513	-8.540174484	-4.434775829	1.0
10	-4.110157988e-06	-443.7047119	2.846426487	46.81318665	-5.827969551	-5.157655239	1.0
[LeftFoot]
7	4.716393505e-06	-444.278717	-29.82190704	-27.79899025	-11.76468372	-0.1608125716	1.0
8	4.716393505e-06	-444.278717	-29.82190704	-27.36802292	-8.446554184	-1.699685693	1.0
9	4.716393505e-06	-444.278717	-29.82190704	-27.80259514	-5.549422741	-2.382150412	1.0
10	4.716393505e-06	-444.278717	-29.82190704	-28.32355309	-4.304141045	-2.787048101	1.0
[LeftToeBase]
7	-2.960988058e-05	-87.28669739	107.1055984	-1.495663047	-1.234033107e-06	-2.182625167e-06	1.0
8	-2.960988058e-05	-87.28669739	107.1055984	-3.631176472	-0.001511148643	0.1092812866	1.0
9	-2.960988058e-05	-87.28669739	107.1055984	-5.221797466	1.468615665e-05	1.950213118e-06	1.0
10	-2.960988058e-05	-87.28669739	107.1055984	-5.159026146	1.690599129e-05	1.743495091e-06	1.0
[RightUpLeg]
7	-82.07795715	-67.51662445	-15.99559402	-27.40660477	-34.21701813	-1.943106055	1.0
8	-82.07795715	-67.51662445	-15.99559402	-26.78766251	-34.01475525	-1.369047761	1.0
9	-82.07795715	-67.51662445	-15.99559402	-27.25133896	-34.38763046	-1.196844578	1.0
10	-82.07795715	-67.51662445	-15.99559402	-28.58369827	-35.53039169	-1.917486191	1.0
[RightLeg]
7	8.435572454e-07	-443.7053833	2.861563921	45.48212433	6.710472107	-7.749196053	1.0
8	8.435572454e-07	-443.7053833	2.861563921	41.1456604	5.536940575	-9.178455353	1.0
9	8.435572454e-07	-443.7053833	2.861563921	40.7902565	4.839640617	-10.07107925	1.0
10	8.435572454e-07	-443.7053833	2.861563921	45.11515427	5.204277992	-9.746219635	1.0
[RightFoot]
7	9.644581951e-06	-444.2773132	-29.83789063	-14.90294933	4.775022507	7.012544155	1.0
8	9.644581951e-06	-444.2773132	-29.83789063	-13.32372856	4.579865456	7.658335209	1.0
9	9.644581951e-06	-444.2773132	-29.83789063	-13.51662254	4.646270275	7.966367722	1.0
10	9.644581951e-06	-444.2773132	-29.83789063	-15.36985111	4.876223564	7.613078117	1.0
[RightToeBase]
7	-2.360438157e-05	-87.28668976	107.1056061	0.4943562448	3.230547009e-05	-0.000272117235	1.0
8	-2.360438157e-05	-87.28668976	107.1056061	1.522614956	1.803761006e-05	-0.0001409640099	1.0
9	-2.360438157e-05	-87.28668976	107.1056061	2.309878111	2.221092245e-06	6.878590852e-07	1.0
10	-2.360438157e-05	-87.28668976	107.1056061	2.077234268	4.081171028e-06	3.820655365e-06	1.0
[EndOfFile]
